<svg height="488pt" viewBox="-15 -26 488 488" width="488pt" xmlns="http://www.w3.org/2000/svg"><path d="m260.253906 337.570312c0 5.839844-4.738281 10.578126-10.574218 10.578126-5.84375 0-10.578126-4.738282-10.578126-10.578126 0-5.84375 4.734376-10.574218 10.578126-10.574218 5.835937 0 10.574218 4.730468 10.574218 10.574218zm0 0"/><path d="m413.179688 124.332031h-257.125c-24.46875.03125-44.296876 19.855469-44.328126 44.324219v222.765625c.011719 16.707031-6.761718 32.703125-18.761718 44.324219h320.214844c24.46875-.03125 44.289062-19.855469 44.320312-44.324219v-222.765625c-.03125-24.46875-19.851562-44.292969-44.320312-44.324219zm-144.601563 72.636719h-21.464844c-4.828125 0-8.75-3.917969-8.75-8.75s3.921875-8.75 8.75-8.75h75c4.835938 0 8.75 3.917969 8.75 8.75s-3.914062 8.75-8.75 8.75h-20.003906c3.101563 4.414062 5.289063 9.40625 6.445313 14.679688h13.558593c4.835938 0 8.75 3.914062 8.75 8.75 0 4.832031-3.914062 8.75-8.75 8.75h-13.558593c-4.09375 18.574218-20.425782 31.898437-39.445313 32.175781l37.65625 35.582031c3.5 3.320312 3.644531 8.84375.335937 12.347656-3.316406 3.507813-8.839843 3.667969-12.351562.367188l-53.640625-50.683594c-2.609375-2.464844-3.449219-6.265625-2.125-9.59375 1.328125-3.332031 4.546875-5.519531 8.128906-5.519531h21.464844c9.550781-.011719 18.140625-5.820313 21.714844-14.675781h-43.179688c-4.828125 0-8.75-3.917969-8.75-8.75 0-4.835938 3.921875-8.75 8.75-8.75h43.179688c-3.574219-8.859376-12.164063-14.664063-21.714844-14.679688zm109.210937 145.382812c-3.507812.003907-6.988281-.65625-10.25-1.945312l-26 28.277344c1.546876 11.152344-3.722656 22.152344-13.382812 27.941406-9.664062 5.785156-21.847656 5.238281-30.953125-1.386719-9.101563-6.628906-13.371094-18.054687-10.832031-29.023437l-14.308594-11.726563c-4.578125 6.074219-11.429688 10.027344-18.972656 10.949219-7.546875.925781-15.152344-1.253906-21.058594-6.046875l-16.988281 21.230469c7.457031 11.609375 5.378906 26.910156-4.910157 36.105468-10.285156 9.195313-25.722656 9.554688-36.421874.855469-10.703126-8.707031-13.496094-23.898437-6.59375-35.835937 6.90625-11.945313 21.46875-17.101563 34.347656-12.164063l20.792968-25.980469c-2.289062-10.382812 1.488282-21.164062 9.742188-27.847656 8.265625-6.6875 19.597656-8.140625 29.273438-3.75 9.679687 4.394532 16.046874 13.878906 16.453124 24.496094l17.839844 14.621094c10.898438-9.289063 27.046875-8.851563 37.433594 1l21.039062-22.878906c-6.8125-10.839844-5.429687-24.917969 3.363282-34.21875 8.792968-9.308594 22.769531-11.480469 33.972656-5.289063 11.207031 6.195313 16.796875 19.183594 13.601562 31.582031-3.203124 12.398438-14.390624 21.054688-27.195312 21.050782zm0 0"/><path d="m94.234375 168.65625c.039063-34.128906 27.695313-61.785156 61.820313-61.824219h236.363281v-2.050781c-.03125-24.464844-19.859375-44.296875-44.324219-44.324219h-99.597656c-6.183594-.003906-12.074219-2.601562-16.25-7.164062l-36.136719-39.539063c-8.40625-9.175781-20.273437-14.40625-32.714844-14.421875h-119.074219c-24.46875.03125-44.2929682 19.855469-44.320312 44.324219v347.765625c.0273438 24.46875 19.851562 44.292969 44.320312 44.324219h5.59375c24.460938-.03125 44.289063-19.855469 44.320313-44.324219zm0 0"/><path d="m191.445312 385.226562c-5.84375 0-10.578124 4.738282-10.578124 10.578126 0 5.839843 4.738281 10.574218 10.578124 10.574218 5.839844 0 10.578126-4.734375 10.578126-10.574218-.007813-5.839844-4.738282-10.574219-10.578126-10.578126zm0 0"/><path d="m313.734375 361.929688c-5.84375 0-10.578125 4.738281-10.578125 10.578124 0 5.84375 4.734375 10.582032 10.578125 10.582032 5.839844 0 10.578125-4.738282 10.578125-10.582032-.007812-5.839843-4.742188-10.570312-10.578125-10.578124zm0 0"/><path d="m388.363281 314.273438c0 5.847656-4.730469 10.578124-10.574219 10.578124-5.839843 0-10.578124-4.730468-10.578124-10.578124 0-5.839844 4.738281-10.574219 10.578124-10.574219 5.84375 0 10.574219 4.734375 10.574219 10.574219zm0 0"/></svg>